<svg width="15" height="12" viewBox="0 0 15 12" fill="none" xmlns="http://www.w3.org/2000/svg">
<path d="M11.8497 2.32551C11.6567 2.42592 11.4374 2.56084 11.2436 2.67615C9.04969 4.03635 6.9368 5.34321 4.75162 6.71361C4.52047 6.85951 4.32825 6.89873 4.05659 6.80695C3.20825 6.51985 2.34641 6.26962 1.49013 6.0037C1.38865 5.97567 1.28915 5.94108 1.19226 5.90016C0.832435 5.73307 0.795103 5.48519 1.10171 5.24751C1.26215 5.13383 1.43813 5.04324 1.62437 4.97845C5.51337 3.49065 9.40555 2.00887 13.3009 0.533094C13.5281 0.447592 13.8673 0.454651 14.073 0.562118C14.3693 0.719004 14.3375 1.07278 14.2716 1.37792C13.7155 3.96758 13.1595 6.5562 12.6035 9.14377C12.4827 9.70463 12.3652 10.2671 12.2429 10.8279C12.084 11.5457 11.6304 11.7261 11.0283 11.2986C10.0346 10.5863 9.05049 9.86152 8.05997 9.13985C7.32045 9.74699 6.87484 10.1933 5.94866 10.926C5.99473 10.1784 6.02015 9.76582 6.06145 9.10847C6.06145 9.04415 6.07655 8.74449 6.08369 8.65742C6.15439 7.82985 6.41096 7.49019 6.92965 7.0415C8.54133 5.646 10.1204 4.21756 11.7115 2.79539C11.8052 2.71224 11.9053 2.6385 11.9927 2.54751C12.1332 2.41102 12.0292 2.22511 11.8497 2.32551Z" fill="#ffffff"/>
</svg>
