<svg width="16" height="10" viewBox="0 0 16 10" fill="none" xmlns="http://www.w3.org/2000/svg">
<path d="M14.9715 8.7136C14.9312 8.63888 14.6818 8.03902 13.4817 6.80611C12.2254 5.51507 12.3941 5.72471 13.9074 3.49238C14.829 2.13285 15.1975 1.30261 15.0822 0.947676C14.9725 0.60935 14.2946 0.698602 14.2946 0.698602L12.0407 0.713131C12.0407 0.713131 11.8738 0.688224 11.7491 0.770211C11.6282 0.85116 11.5503 1.03797 11.5503 1.03797C11.5503 1.03797 11.1931 2.0903 10.7168 2.98489C9.7127 4.87267 9.31048 4.9723 9.14641 4.85503C8.76482 4.58208 8.86045 3.75703 8.86045 3.1717C8.86045 1.34204 9.11078 0.579254 8.37198 0.38207C8.12634 0.316688 7.94632 0.2731 7.31909 0.265835C6.51465 0.256495 5.83304 0.268949 5.4477 0.477548C5.19081 0.616615 4.99298 0.92692 5.11393 0.944563C5.263 0.966357 5.60052 1.04523 5.7796 1.31506C6.01118 1.66273 6.00274 2.44523 6.00274 2.44523C6.00274 2.44523 6.13588 4.59869 5.69241 4.86644C5.3877 5.05014 4.97048 4.67549 4.0751 2.96206C3.61663 2.08511 3.26973 1.11476 3.26973 1.11476C3.26973 1.11476 3.20316 0.934185 3.08409 0.837668C2.9397 0.720396 2.73719 0.683035 2.73719 0.683035L0.593907 0.697564C0.593907 0.697564 0.272321 0.707942 0.154188 0.862576C0.0491798 1.0006 0.145749 1.28496 0.145749 1.28496C0.145749 1.28496 1.824 5.63027 3.72351 7.82108C5.46645 9.82925 7.44472 9.69744 7.44472 9.69744H8.34104C8.34104 9.69744 8.612 9.66423 8.74982 9.49922C8.87733 9.3477 8.87264 9.06334 8.87264 9.06334C8.87264 9.06334 8.85483 7.73183 9.41362 7.53569C9.96397 7.34266 10.6709 8.82257 11.42 9.39233C11.9863 9.82302 12.4167 9.72858 12.4167 9.72858L14.4202 9.69744C14.4202 9.69744 15.4684 9.62584 14.9715 8.7136Z" fill="#ffffff"/>
</svg>
