<svg width="11" height="13" viewBox="0 0 11 13" fill="none" xmlns="http://www.w3.org/2000/svg">
<path d="M7.07143 5.34432C7.07143 5.6466 6.97927 5.9421 6.8066 6.19344C6.63393 6.44478 6.3885 6.64067 6.10136 6.75635C5.81422 6.87203 5.49826 6.9023 5.19343 6.84332C4.88861 6.78435 4.60861 6.63879 4.38884 6.42504C4.16907 6.2113 4.0194 5.93897 3.95877 5.64249C3.89814 5.34602 3.92926 5.03871 4.04819 4.75944C4.16713 4.48017 4.36855 4.24147 4.62697 4.07353C4.88539 3.90559 5.18921 3.81595 5.5 3.81595C5.91677 3.81595 6.31647 3.97697 6.61117 4.2636C6.90587 4.55022 7.07143 4.93897 7.07143 5.34432ZM9.38929 9.13239L5.5 12.8333L1.61701 9.13774C0.846364 8.39055 0.320921 7.43783 0.107165 6.40011C-0.106591 5.3624 0.000946385 4.28633 0.41617 3.30808C0.831394 2.32982 1.53564 1.49334 2.4398 0.904487C3.34396 0.315629 4.4074 0.000857662 5.49555 1.75016e-06C6.5837 -0.000854162 7.64766 0.312244 8.5528 0.899678C9.45794 1.48711 10.1636 2.32248 10.5804 3.30008C10.9973 4.27768 11.1066 5.35358 10.8946 6.39163C10.6825 7.42968 10.1587 8.38399 9.38929 9.13239ZM8.64286 5.34432C8.64286 4.73975 8.45853 4.14876 8.11319 3.64609C7.76785 3.14341 7.27701 2.75162 6.70272 2.52026C6.12844 2.2889 5.49652 2.22837 4.88686 2.34631C4.27721 2.46426 3.71721 2.75539 3.27767 3.18288C2.83813 3.61037 2.53881 4.15503 2.41754 4.74798C2.29627 5.34093 2.35851 5.95554 2.59638 6.51409C2.83426 7.07263 3.23709 7.55003 3.75393 7.88591C4.27077 8.22179 4.87841 8.40106 5.5 8.40106C6.33354 8.40106 7.13294 8.07901 7.72234 7.50576C8.31174 6.93251 8.64286 6.15502 8.64286 5.34432Z" fill="#7580ab"/>
</svg>
