<svg width="379" height="350" viewBox="0 0 379 350" fill="none" xmlns="http://www.w3.org/2000/svg">
<mask id="mask0_535_32430" style="mask-type:alpha" maskUnits="userSpaceOnUse" x="-65" y="-17" width="458" height="532">
<path d="M109.54 -10.8079C104.464 9.40938 86.5194 53.0454 55.3481 65.851C16.3839 81.858 -32.7938 102.094 -40.291 170.03C-47.7883 237.965 38.6186 287.243 106.924 232.575C175.229 177.907 196.23 148.27 264.707 138.518C333.184 128.765 413.428 242.832 288.523 309.728C163.617 376.623 205.428 465.793 255.049 484.875C294.746 500.141 357.501 484.321 383.917 474.503" stroke="black" stroke-width="47.2498"/>
</mask>
<g mask="url(#mask0_535_32430)">
<rect width="550.663" height="455.057" transform="matrix(0.920379 0.391028 -0.390797 0.920477 -4.13086 -71.6602)" fill="url(#paint0_linear_535_32430)"/>
<ellipse rx="457.401" ry="457.425" transform="matrix(0.920379 0.391028 -0.390797 0.920477 398.384 -2.59082)" fill="url(#paint1_radial_535_32430)"/>
<ellipse rx="148.176" ry="148.184" transform="matrix(0.920379 0.391028 -0.390797 0.920477 0.665351 206.142)" fill="url(#paint2_radial_535_32430)"/>
<ellipse rx="148.176" ry="148.184" transform="matrix(0.920379 0.391028 -0.390797 0.920477 291.502 518.686)" fill="url(#paint3_radial_535_32430)"/>
<ellipse rx="112.445" ry="112.451" transform="matrix(0.920379 0.391028 -0.390797 0.920477 85.2801 48.5319)" fill="url(#paint4_linear_535_32430)"/>
</g>
<defs>
<linearGradient id="paint0_linear_535_32430" x1="275.332" y1="52.0215" x2="331.822" y2="418.536" gradientUnits="userSpaceOnUse">
<stop stop-color="#AEBBF3"/>
<stop offset="1" stop-color="#0031FF"/>
</linearGradient>
<radialGradient id="paint1_radial_535_32430" cx="0" cy="0" r="1" gradientUnits="userSpaceOnUse" gradientTransform="translate(457.401 457.425) rotate(90) scale(457.425 457.401)">
<stop stop-color="white"/>
<stop offset="1" stop-color="white" stop-opacity="0"/>
</radialGradient>
<radialGradient id="paint2_radial_535_32430" cx="0" cy="0" r="1" gradientUnits="userSpaceOnUse" gradientTransform="translate(148.176 148.184) rotate(90) scale(148.184 148.176)">
<stop stop-color="#00FFFF"/>
<stop offset="1" stop-color="white" stop-opacity="0"/>
</radialGradient>
<radialGradient id="paint3_radial_535_32430" cx="0" cy="0" r="1" gradientUnits="userSpaceOnUse" gradientTransform="translate(148.176 148.184) rotate(90) scale(148.184 148.176)">
<stop stop-color="#6AD8F0"/>
<stop offset="1" stop-color="#7EE8FF" stop-opacity="0"/>
</radialGradient>
<linearGradient id="paint4_linear_535_32430" x1="106.928" y1="39.1478" x2="94.5789" y2="169.465" gradientUnits="userSpaceOnUse">
<stop stop-color="#B19DFF"/>
<stop offset="1" stop-color="#B8A7FF" stop-opacity="0"/>
</linearGradient>
</defs>
</svg>
