<svg width="13" height="10" viewBox="0 0 13 10" fill="none" xmlns="http://www.w3.org/2000/svg">
<path d="M5.35049 5.24857C5.65576 5.50374 6.06906 5.647 6.49991 5.647C6.93076 5.647 7.34405 5.50374 7.64932 5.24857L12.8813 0.857337C12.7608 0.60458 12.553 0.387859 12.2845 0.235068C12.0161 0.0822766 11.6993 0.000408352 11.3749 0H1.62491C1.30053 0.000408352 0.98373 0.0822766 0.71527 0.235068C0.44681 0.387859 0.23898 0.60458 0.11853 0.857337L5.35049 5.24857Z" fill="#4A6CFC"/>
<path d="M8.41533 5.89066C7.90691 6.31627 7.21811 6.55528 6.5 6.55528C5.78189 6.55528 5.09309 6.31627 4.58467 5.89066L0 2.04492V10.0001H13V2.04492L8.41533 5.89066Z" fill="#4A6CFC"/>
</svg>
