<svg width="20" height="20" viewBox="0 0 20 20" fill="none" xmlns="http://www.w3.org/2000/svg">
<path d="M16.3249 3.34926C16.0373 3.53094 15.7106 3.77509 15.4218 3.98375C12.1524 6.44506 9.0038 8.80985 5.74745 11.2896C5.403 11.5536 5.11654 11.6246 4.71172 11.4585C3.44753 10.939 2.16322 10.4862 0.8872 10.005C0.735975 9.95429 0.587694 9.8917 0.443314 9.81765C-0.0928993 9.51531 -0.148531 9.06677 0.308375 8.63668C0.547456 8.43097 0.809699 8.26704 1.08724 8.14981C6.88261 5.4576 12.6827 2.77627 18.4876 0.10583C18.8261 -0.0488892 19.3315 -0.0361144 19.6381 0.158349C20.0796 0.442238 20.0323 1.08241 19.934 1.63457C19.1054 6.32062 18.2769 11.0048 17.4483 15.687C17.2684 16.702 17.0932 17.7197 16.9109 18.7346C16.6741 20.0334 15.9982 20.3599 15.101 19.5863C13.6202 18.2974 12.1536 16.9858 10.6775 15.68C9.57552 16.7786 8.91147 17.5863 7.53128 18.912C7.59993 17.5593 7.63781 16.8127 7.69936 15.6232C7.69936 15.5068 7.72185 14.9646 7.73251 14.807C7.83786 13.3095 8.22019 12.6949 8.99314 11.8829C11.3949 9.35775 13.748 6.77295 16.119 4.1995C16.2587 4.04904 16.4078 3.91561 16.538 3.75096C16.7475 3.50398 16.5925 3.16757 16.3249 3.34926Z" fill="#9CAFFF"/>
</svg>
