<svg width="12" height="14" viewBox="0 0 12 14" fill="none" xmlns="http://www.w3.org/2000/svg">
<path d="M7.7634 6.573L9.0366 7.81025L6.885 9.90208C6.68999 10.0917 6.45848 10.2421 6.20369 10.3447C5.94889 10.4473 5.67579 10.5001 5.4 10.5001C5.12421 10.5001 4.85111 10.4473 4.59632 10.3447C4.34152 10.2421 4.11001 10.0917 3.915 9.90208L2.9634 8.9775L4.2366 7.73967L5.1876 8.66425C5.24386 8.71893 5.32015 8.74965 5.3997 8.74965C5.47925 8.74965 5.55554 8.71893 5.6118 8.66425L7.7634 6.573ZM12 3.42942V14H0V1.75C0 1.28587 0.189642 0.840752 0.527208 0.512563C0.864773 0.184374 1.32261 0 1.8 0L8.4726 0L12 3.42942ZM10.2 12.25V4.66667H7.2V1.75H1.8V12.25H10.2Z" fill="#9CAFFF"/>
</svg>
