<svg width="15" height="16" viewBox="0 0 15 16" fill="none" xmlns="http://www.w3.org/2000/svg">
<path d="M13.125 1.87551H11.25V1.53417C11.2495 1.12743 11.0878 0.737501 10.8002 0.449896C10.5127 0.162291 10.1229 0.000496321 9.71625 0L5.28438 0C4.87764 0.000330868 4.48766 0.162052 4.19999 0.449675C3.91233 0.737298 3.7505 1.12733 3.75 1.53417V1.87551H1.875C1.37772 1.87551 0.900805 2.07311 0.549175 2.42484C0.197544 2.77656 0 3.25361 0 3.75103L0 15.0041H15V3.75103C15 3.25361 14.8025 2.77656 14.4508 2.42484C14.0992 2.07311 13.6223 1.87551 13.125 1.87551ZM13.125 3.75103V6.87688H1.875V3.75103H13.125ZM1.875 13.1286V8.75239H6.25V10.0027H8.75V8.75239H13.125V13.1286H1.875Z" fill="#4a6cfc"/>
</svg>
