<svg width="20" height="20" viewBox="0 0 20 20" fill="none" xmlns="http://www.w3.org/2000/svg">
<path d="M1 7.03081L7.06667 1.20747C7.84917 0.431816 8.90704 -0.00233315 10.0088 9.43101e-06C11.1106 0.00235201 12.1666 0.440995 12.9458 1.21997L19.0042 7.03081L11.7675 14.2683C11.2911 14.7224 10.6582 14.9758 10 14.9758C9.34183 14.9758 8.7089 14.7224 8.2325 14.2683L1 7.03081ZM12.95 15.4475C12.1686 16.2286 11.109 16.6674 10.0042 16.6674C8.89932 16.6674 7.8397 16.2286 7.05833 15.4475L0.133333 8.52497C0.0498186 8.80933 0.00497127 9.10364 0 9.39997L0 20H20V9.39997C19.995 9.10364 19.9502 8.80933 19.8667 8.52497L12.95 15.4475Z" fill="#9CAFFF"/>
</svg>
