<svg width="10" height="16" viewBox="0 0 10 16" fill="none" xmlns="http://www.w3.org/2000/svg">
<path d="M5.00029 7.99979C7.17311 7.99979 8.94735 6.40927 8.94735 4.45126C8.94735 2.48505 7.17311 0.894531 5.00029 0.894531C2.82685 0.894531 1.05261 2.48505 1.05261 4.45126C1.05261 6.40927 2.82685 7.99979 5.00029 7.99979ZM5.00029 2.6963C6.06796 2.6963 6.93884 3.48103 6.93884 4.45126C6.93884 5.4133 6.06796 6.19802 5.00029 6.19802C3.93263 6.19802 3.06175 5.4133 3.06175 4.45126C3.06113 3.48044 3.932 2.6963 5.00029 2.6963Z" fill="#001C93"/>
<path d="M0.402767 8.5389C0.0155545 9.25057 0.455196 9.59076 1.45829 10.1719C2.31104 10.6645 3.4891 10.8446 4.24584 10.9167C3.93569 11.1954 5.35695 9.91736 1.26373 13.5986C0.395819 14.3764 1.79307 15.6243 2.66035 14.863L5.00827 12.7457C5.90713 13.5543 6.76873 14.3291 7.35618 14.866C8.22409 15.6302 9.62071 14.3929 8.76227 13.6015C8.69784 13.5442 5.58056 10.7483 5.77069 10.9196C6.5369 10.8476 7.69728 10.6568 8.53993 10.1749L8.53929 10.1743C9.54238 9.59017 9.98203 9.25057 9.6005 8.5389C9.36994 8.13493 8.74838 7.79711 7.92089 8.38121C7.92089 8.38121 6.80347 9.18147 5.00132 9.18147C3.19853 9.18147 2.08174 8.38121 2.08174 8.38121C1.25489 7.79416 0.6308 8.13493 0.402767 8.5389Z" fill="#001C93"/>
</svg>
