<svg width="18" height="20" viewBox="0 0 18 20" fill="none" xmlns="http://www.w3.org/2000/svg">
<path d="M16.8451 4.16667H13.1667V0.488333L16.8451 4.16667ZM17.3334 5.83333V20H0.666748V2.5C0.666748 1.83696 0.93014 1.20107 1.39898 0.732233C1.86782 0.263392 2.50371 0 3.16675 0L11.5001 0V5.83333H17.3334ZM12.8426 11.28L11.6667 10.1017L8.67508 13.0892C8.51658 13.2408 8.30569 13.3254 8.08633 13.3254C7.86698 13.3254 7.65608 13.2408 7.49758 13.0892L6.17592 11.7683L5.00008 12.9467L6.32091 14.2675C6.55307 14.4997 6.82868 14.6839 7.13203 14.8095C7.43537 14.9352 7.76049 14.9999 8.08883 14.9999C8.41717 14.9999 8.7423 14.9352 9.04564 14.8095C9.34898 14.6839 9.6246 14.4997 9.85675 14.2675L12.8426 11.28Z" fill="#9CAFFF"/>
</svg>
